<?xml version="1.0" encoding="utf-8"?>
<!-- Generator: Adobe Illustrator 16.0.0, SVG Export Plug-In . SVG Version: 6.00 Build 0)  -->
<!DOCTYPE svg PUBLIC "-//W3C//DTD SVG 1.1//EN" "http://www.w3.org/Graphics/SVG/1.1/DTD/svg11.dtd">
<svg version="1.1" id="Capa_1" xmlns="http://www.w3.org/2000/svg" xmlns:xlink="http://www.w3.org/1999/xlink" x="0px" y="0px"
	 width="60.574px" height="88.482px" viewBox="0 0 60.574 88.482" enable-background="new 0 0 60.574 88.482" xml:space="preserve">
<g>
	<path fill="#F7A90D" d="M21.1,0c10.666,0,21.333,0,31.998,0c-6.08,12.299-12.16,24.6-18.302,37.024c8.752,0,17.265,0,25.776,0
		c0,0.077,0,0.155,0,0.231c-0.354,0.274-0.743,0.516-1.059,0.828C42.832,54.599,26.156,71.122,9.479,87.642
		c-0.292,0.29-0.602,0.56-0.902,0.84c-0.061-0.033-0.121-0.065-0.182-0.099c3.5-12.146,7-24.291,10.533-36.55
		c-6.17,0-12.16,0-18.148,0c0-0.077,0-0.153,0-0.23c0.151-0.309,0.326-0.605,0.451-0.923c3.121-7.964,6.232-15.931,9.354-23.894
		C14.084,17.856,17.594,8.929,21.1,0z"/>
</g>
</svg>
